<?xml version="1.0" encoding="UTF-8" standalone="no"?>
<!DOCTYPE svg PUBLIC "-//W3C//DTD SVG 1.1//EN" "http://www.w3.org/Graphics/SVG/1.1/DTD/svg11.dtd">
<svg version="1.1" xmlns="http://www.w3.org/2000/svg" xmlns:xlink="http://www.w3.org/1999/xlink" preserveAspectRatio="xMidYMid meet" viewBox="0 0 640 640" width="640" height="640"><defs><path d="M529.07 383.72C515.13 369.78 445.44 300.08 319.99 174.62C194.55 300.07 124.86 369.77 110.92 383.71C98.66 395.98 82.34 402.74 64.97 402.74C47.59 402.74 31.27 395.98 19 383.71C-6.33 358.38 -6.33 317.15 19 291.82C44.5 266.31 248.53 62.27 274.04 36.76C286.3 24.49 302.62 17.73 319.97 17.73C337.32 17.73 353.65 24.49 365.93 36.76C391.43 62.27 595.46 266.31 620.97 291.82C633.25 304.09 640 320.4 640 337.77C640 355.11 633.24 371.45 620.97 383.72C608.71 395.98 592.39 402.76 575.03 402.76C557.67 402.76 541.35 395.98 529.07 383.72ZM549.49 363.3C563.14 376.95 586.9 376.95 600.55 363.3C607.38 356.47 611.12 347.4 611.12 337.77C611.12 328.14 607.36 319.07 600.55 312.24C574.98 286.67 370.43 82.13 344.86 56.56C331.21 43.54 307.89 43.75 294.47 57.18C268.97 82.69 64.92 286.73 39.42 312.24C25.34 326.32 25.34 349.22 39.42 363.29C53.06 376.94 76.85 376.94 90.48 363.29C105.78 347.99 182.29 271.49 319.99 133.78C457.69 271.5 534.19 348 549.49 363.3Z" id="e27zRonIca"></path></defs><g><g><g><use xlink:href="#e27zRonIca" opacity="1" fill="#f5bb71" fill-opacity="1"></use><g><use xlink:href="#e27zRonIca" opacity="1" fill-opacity="0" stroke="#000000" stroke-width="1" stroke-opacity="0"></use></g></g></g></g></svg>